<?xml version="1.0" encoding="UTF-8" standalone="no"?>
<svg width="125" height="25" viewBox="0 0 33.072913 6.6145825" id="svg1" version="1.1" xmlns="http://www.w3.org/2000/svg" xmlns:svg="http://www.w3.org/2000/svg">
  <title id="title6">1MinHow_logo</title>
  <defs id="defs1"><rect x="154.58122" y="109.79601" width="385.28588" height="97.483748" id="rect3" /></defs>
  <g id="layer1">
    <g id="text3" style="font-weight:bold;font-size:80.036px;font-family:'Noto Sans SC';-inkscape-font-specification:'Noto Sans SC Bold';text-align:center;white-space:pre;shape-padding:1.22342;stroke-width:0.997775" transform="matrix(0.08815478,0,0,0.08815478,-14.263549,-10.758806)" aria-label="1MinHow">
      <path style="fill:#dca54a" d="m 192.31491,183.8423 h -12.08544 v -33.05487 q 0,-2.08093 0.08,-5.44244 0.16008,-3.36152 0.24011,-5.92267 -0.40018,0.48022 -1.76079,1.76079 -1.28058,1.20054 -2.40108,2.16098 l -6.56295,5.28237 -5.84263,-7.28327 18.40828,-14.64659 h 9.92447 z m 44.09987,0 -13.76619,-44.82016 h -0.32014 q 0.08,1.60072 0.24011,4.80216 0.16007,3.20144 0.32014,6.8831 0.16007,3.60162 0.16007,6.56295 v 26.57195 h -10.80486 v -57.1457 h 16.48742 l 13.52608,43.69966 h 0.24011 l 14.32645,-43.69966 h 16.48741 v 57.1457 h -11.28507 v -27.05216 q 0,-2.72123 0.08,-6.24281 0.16007,-3.52159 0.24011,-6.64299 0.16007,-3.20144 0.24011,-4.80216 h -0.32015 l -14.72662,44.74012 z m 56.34542,-60.82736 q 2.64119,0 4.56205,1.28058 1.92086,1.20054 1.92086,4.56205 0,3.28148 -1.92086,4.56205 -1.92086,1.28058 -4.56205,1.28058 -2.72123,0 -4.64209,-1.28058 -1.84083,-1.28057 -1.84083,-4.56205 0,-3.36151 1.84083,-4.56205 1.92086,-1.28058 4.64209,-1.28058 z m 5.92266,17.12771 V 183.8423 H 286.7575 v -43.69965 z m 37.29679,-0.80036 q 7.04317,0 11.28508,3.84172 4.24191,3.7617 4.24191,12.16548 v 28.49281 h -11.92537 v -25.53148 q 0,-4.72212 -1.68075,-7.04317 -1.68076,-2.40108 -5.36241,-2.40108 -5.44245,0 -7.44335,3.76169 -2.0009,3.68166 -2.0009,10.64479 v 20.56925 h -11.92537 v -43.69965 h 9.12411 l 1.60072,5.60252 h 0.64029 q 2.08093,-3.36152 5.68255,-4.8822 3.68166,-1.52068 7.76349,-1.52068 z" id="path1" />
      <path style="fill:#0f172a" d="M 411.53362,183.8423 H 399.44818 V 159.19122 H 376.798 V 183.8423 H 364.71256 V 126.6966 H 376.798 v 22.41008 h 22.65018 V 126.6966 h 12.08544 z m 53.14386,-21.92986 q 0,10.8849 -5.76259,16.80756 -5.68256,5.92266 -15.52699,5.92266 -6.08274,0 -10.8849,-2.64118 -4.72212,-2.64119 -7.44334,-7.68346 -2.72123,-5.1223 -2.72123,-12.40558 0,-10.8849 5.68256,-16.72753 5.68255,-5.84262 15.60702,-5.84262 6.16277,0 10.8849,2.64118 4.72212,2.64119 7.44334,7.68346 2.72123,4.96223 2.72123,12.24551 z m -30.17358,0 q 0,6.48292 2.08094,9.84443 2.16097,3.28147 6.96313,3.28147 4.72213,0 6.80306,-3.28147 2.16098,-3.36151 2.16098,-9.84443 0,-6.48292 -2.16098,-9.68436 -2.08093,-3.28147 -6.88309,-3.28147 -4.72213,0 -6.8831,3.28147 -2.08094,3.20144 -2.08094,9.68436 z m 70.99184,6.64299 q -0.32014,-1.36061 -0.96043,-4.0018 -0.56025,-2.72123 -1.28058,-5.76259 -0.72032,-3.12141 -1.36061,-5.68256 -0.64029,-2.64119 -0.8804,-3.84173 h -0.32014 q -0.24011,1.20054 -0.8804,3.84173 -0.56025,2.56115 -1.28057,5.68256 -0.72033,3.04136 -1.36061,5.76259 -0.64029,2.72122 -0.96044,4.16187 l -3.52158,15.1268 h -12.80576 l -12.40558,-43.69965 h 11.84533 l 5.04227,19.36871 q 0.56025,2.0009 0.96043,4.80216 0.48021,2.80126 0.88039,5.44245 0.40018,2.56115 0.56026,4.08183 h 0.32014 q 0.08,-1.1205 0.32014,-2.96133 0.24011,-1.92086 0.56026,-3.92176 0.40018,-2.0009 0.64028,-3.60162 0.32015,-1.68076 0.48022,-2.24101 l 5.36241,-20.96943 h 13.12591 l 5.1223,20.96943 q 0.32015,1.1205 0.72033,3.60162 0.48021,2.48112 0.80036,5.04227 0.40018,2.56115 0.40018,4.08183 h 0.32014 q 0.16007,-1.36061 0.56025,-3.92176 0.40018,-2.64119 0.8804,-5.52248 0.56025,-2.8813 1.1205,-4.8822 l 5.20234,-19.36871 h 11.68526 l -12.56565,43.69965 h -12.96584 z" id="path2" />
    </g>
  </g>
  <metadata id="metadata1" />
</svg>
